<?xml version="1.0" encoding="utf-8"?>
<!-- Generator: Adobe Illustrator 19.2.1, SVG Export Plug-In . SVG Version: 6.00 Build 0)  -->
<svg version="1.1" id="Layer_1" xmlns="http://www.w3.org/2000/svg" xmlns:xlink="http://www.w3.org/1999/xlink" x="0px" y="0px"
     viewBox="0 0 698.8 198.3" style="enable-background:new 0 0 698.8 198.3;" xml:space="preserve" width="700px" height="200px">
<style type="text/css">
	.st0{fill:#555759;}
</style>
    <g>
	<g>
		<g>
			<path class="st0" d="M209.4,83.1l0.6,0.2c0.6,0.2,14.5,4.5,26.2,4.5c12.3,0,24.8-5,34.4-13.8c8.6-7.9,13.4-18.8,13.4-30.7
				c0-12-4.7-22.9-13.3-30.8l0,0C262,4.5,249.7,0,236.2,0h-26.8L209.4,83.1L209.4,83.1z M236.1,77.3c-6.8,0-12.7-1.2-14.9-1.7
				l-0.3-0.1V10.4h15.2c21.1,0,35.8,13.4,35.8,32.6C272,62.5,256.5,77.3,236.1,77.3z"/>
		</g>
        <g>
			<path class="st0" d="M324.1,21c-8.9,0-17.1,3.5-23,9.8c-5.9,6.2-9.1,14.6-9.1,23.5c0,9.5,3.4,17.8,9.8,24
				c6.1,6,14.5,9.3,23.6,9.3c11.3,0,19.7-3.7,27.5-12l0.6-0.6l-7.3-6.2l-0.5,0.5c-5.8,5.9-12.2,8.6-20,8.6c-11.7,0-20.3-7.4-22-18.8
				l-0.1-0.4h51.6l0.1-0.7c0.1-1.1,0.1-2.1,0.1-3c0-9.4-2.9-17.9-8.2-24C341.5,24.4,333.5,21,324.1,21z M343.8,50.1h-40.3l0.1-0.4
				c1.7-11.6,9.9-19.3,20.3-19.3c8.5,0,18.2,5.1,19.9,19.3V50.1z"/>
		</g>
        <g>
			<path class="st0" d="M413.9,86.3h11.3V46.6c0-7.6-2.4-14.1-6.8-18.7c-4.6-4.7-11.1-7.2-19-7.2c-19.6,0-32,6.7-32.5,7l-0.4,0.2
				v58.3h11.3V34.5l0.2-0.1c5.8-2.6,11.3-3.7,18.6-3.7c5.4,0,9.8,1.7,12.8,4.8c2.9,3.1,4.5,7.7,4.5,13.3V86.3z"/>
		</g>
        <g>
			<path class="st0" d="M535.2,105.7h11.3V83.3l0.5,0.2c8.2,3.2,13.7,4.2,22.1,4.2c18.7,0,30.3-12.8,30.3-33.5
				c0-10.3-3.1-18.8-9-24.6c-5.8-5.7-14.2-8.7-24.3-8.7c-16.9,0-29.9,6.7-30.4,7l-0.4,0.2L535.2,105.7L535.2,105.7z M568.9,77.7
				c-7.2,0-13.5-0.9-22.6-5.6l-0.2-0.1V34.9l0.2-0.1c1.8-0.9,8.5-4,18.8-4c15,0,22.6,7.9,22.6,23.5C587.7,69.4,581,77.7,568.9,77.7z
				"/>
		</g>
        <g>
			<path class="st0" d="M545.1,130.9c-20.3,0-33.4,13.1-33.4,33.4c0,10.1,2.8,18.6,8.2,24.6c5.1,5.7,12.4,8.9,20.5,8.9
				c8.3,0,14.7-1.6,23.7-5.9l0.5-0.2v4.8h11.3v-58.3l-0.4-0.2C575,137.7,562.1,130.9,545.1,130.9z M542.2,187.9c-6,0-10.7-2-14-6.1
				c-3.2-4-4.9-10-4.9-17.3c0-19.5,12.4-23.5,22.7-23.5c10.4,0,17,3.1,18.8,4l0.2,0.1v35.3l-0.2,0.1
				C556.3,185.5,549.1,187.9,542.2,187.9z"/>
		</g>
        <g>
			<path class="st0" d="M609.5,86.3h11.3V3.2h-11.3V86.3z"/>
		</g>
        <g>
			<path class="st0" d="M633.5,102.5l0.7,0.3c4.9,2.3,9,3.2,14.2,3.2c10.4,0,16.9-5.3,22.5-18.2L698.8,22h-12.1l-20.5,51L643,22
				h-12.5l30.1,63.2l-0.1,0.1c-3.6,7.9-6.9,10.8-12.5,10.8c-3.9,0-6.7-0.6-9.9-2.2l-0.7-0.4L633.5,102.5z"/>
		</g>
        <g>
			<path class="st0" d="M205.1,183.4l0.6,0.5c11,9.4,22.6,13.8,36.7,13.8c8.9,0,16.6-2.3,22.2-6.7c5.8-4.5,8.8-10.8,8.8-18.2
				c0-13.1-8.8-20.6-29.4-24.9l0,0c-19.8-4.1-23.4-8.5-23.4-15.8c0-7.7,7.4-13,18-13c9.2,0,17.1,2.9,25,9l0.6,0.5l6.8-8.6l-0.6-0.5
				c-9.6-7.4-19.1-10.6-31.6-10.6c-17.3,0-29.9,10.1-29.9,24c0,7.3,2.4,12.5,7.5,16.6c4.7,3.7,12,6.5,22.8,8.8
				c18.9,3.8,22.4,8.2,22.4,15.4c0,8.2-7.6,13.7-18.9,13.7c-11.5,0-20.1-3.4-29.8-11.8l-0.6-0.5L205.1,183.4z"/>
		</g>
        <g>
			<path class="st0" d="M393.1,130.9c-19.6,0-34.9,14.8-34.9,33.6c0,18.7,15.2,33.4,34.7,33.4c9.6,0,18.5-3.5,25.1-10
				c6.4-6.3,10-14.7,10-23.6C427.8,145.6,412.6,130.9,393.1,130.9z M393.1,188c-13.1,0-23.3-10.4-23.3-23.7c0-6.5,2.3-12.4,6.4-16.7
				c4.2-4.4,10.1-6.8,16.7-6.8c13.2,0,23.5,10.4,23.5,23.8c0,6.4-2.3,12.3-6.5,16.6C405.5,185.5,399.6,188,393.1,188z"/>
		</g>
        <g>
			<path class="st0" d="M487.5,196.5h11.3v-39.7c0-7.6-2.4-14.1-6.8-18.7c-4.6-4.7-11.1-7.2-19-7.2c-19.6,0-32,6.7-32.5,7l-0.4,0.2
				v58.4h11.3v-51.7l0.2-0.1c5.8-2.6,11.3-3.7,18.6-3.7c5.4,0,9.8,1.7,12.8,4.8c2.9,3.1,4.5,7.7,4.5,13.3V196.5z"/>
		</g>
        <g>
			<path class="st0" d="M287.4,196.5h11.3v-64.2h-11.3V196.5z"/>
		</g>
        <g>
			<path class="st0" d="M315.8,196.5h11.3v-52.4l0.1-0.1c2.9-2,7.1-3.3,11.3-3.3c6.9,0,11,2.3,15,4.5l1.2,0.7l4.9-9l-0.7-0.4
				c-6.2-3.5-11.6-5.6-20.4-5.6c-14.2,0-22.1,5.8-22.4,6l-0.3,0.2V196.5z"/>
		</g>
        <g>
			<path class="st0" d="M440,3.2v66.4c0,6.4,1.8,11.2,5.2,14.2s7.5,3.6,10.4,3.6c3.6,0,6.9-0.7,10.2-2.2l-3.4-8.9
				c-1.5,0.7-2.9,1.1-4.3,1.1c-3,0-6.8,0-6.8-9V31.9h11.3v-9.8h-11.3V3.2L440,3.2L440,3.2z"/>
		</g>
        <g>
			<path class="st0" d="M287.2,124.4h12.1v-11h-12.1V124.4z"/>
		</g>
	</g>
        <g>
		<path class="st0" d="M44.6,0c62.7,0,106.9,39.8,106.6,96.9c-0.1,12.6-1.7,19.4-4.1,28.6c-9.6-26.5-36.8-37.1-77.9-45.7l0,0
			c-59-14.1-67-27.2-69-45.4V0.1C0.1,0.1,44.8,0,44.6,0z"/>
            <path class="st0" d="M122.9,157c0-21.2-11.4-31.5-64.1-42.9C26.9,107.2,13.2,101.5,0,90.8v90c17.8,10.9,43.2,17.5,56.5,17.5
			C101.3,198.3,122.9,178.7,122.9,157z"/>
	</g>
        <g>
		<path class="st0" d="M472.5,77.7l0.6,0.5c7.4,5.8,18,9.4,27.5,9.4c6.7,0,12.7-1.8,17-5.1c4.6-3.5,7.1-8.5,7.1-14.5v-0.2
			c0-12.5-13-16.2-21.5-18.7L503,49c-8.2-2.4-16-4.7-16-9.9v-0.2c0-4.9,4.9-8.3,11.8-8.3c6,0,12.7,2.1,18.9,5.9l0.7,0.4l5.3-8.4
			l-0.7-0.4c-7-4.4-15.9-7-23.9-7c-13.6,0-23,7.7-23,18.7V40c0,12.4,12.8,15.9,22.2,18.4c8.6,2.3,15.7,4.7,15.7,10.3v0.2
			c0,5.5-5.1,9.1-12.7,9.1c-7.4,0-15-2.7-22.2-7.8l-0.6-0.5L472.5,77.7z"/>
	</g>
</g>
</svg>
