<svg width="38" height="38" viewBox="0 0 38 38" fill="none" xmlns="http://www.w3.org/2000/svg">
<path d="M3.16669 19C3.16669 27.7447 10.2553 34.8333 19 34.8333C27.7448 34.8333 34.8334 27.7447 34.8334 19C34.8334 10.2552 27.7448 3.16666 19 3.16666C10.2553 3.16666 3.16669 10.2552 3.16669 19Z" stroke="#0E8EF1" stroke-width="1.5" stroke-linecap="round" stroke-linejoin="round"/>
<path d="M20.5834 3.24582C20.5834 3.24582 25.3334 9.49999 25.3334 19C25.3334 28.5 20.5834 34.7542 20.5834 34.7542" stroke="#0E8EF1" stroke-width="1.5" stroke-linecap="round" stroke-linejoin="round"/>
<path d="M17.4167 34.7542C17.4167 34.7542 12.6667 28.5 12.6667 19C12.6667 9.49999 17.4167 3.24582 17.4167 3.24582" stroke="#0E8EF1" stroke-width="1.5" stroke-linecap="round" stroke-linejoin="round"/>
<path d="M4.16418 24.5417H33.8359" stroke="#0E8EF1" stroke-width="1.5" stroke-linecap="round" stroke-linejoin="round"/>
<path d="M4.16418 13.4583H33.8359" stroke="#0E8EF1" stroke-width="1.5" stroke-linecap="round" stroke-linejoin="round"/>
</svg>
