<svg width="18" height="17" viewBox="0 0 18 17" fill="none" xmlns="http://www.w3.org/2000/svg">
<path d="M8 4.50004C7.99987 3.74796 8.18824 3.00785 8.54789 2.34734C8.90753 1.68683 9.42699 1.127 10.0588 0.719001C10.6906 0.311005 11.4145 0.0678607 12.1645 0.0117917C12.9145 -0.0442773 13.6666 0.0885171 14.352 0.398038C14.4257 0.43132 14.4902 0.481982 14.54 0.545677C14.5899 0.609372 14.6235 0.684201 14.638 0.763746C14.6526 0.843291 14.6476 0.925178 14.6236 1.00239C14.5996 1.07959 14.5571 1.14982 14.5 1.20704L12.207 3.50004L13.5 4.79304L15.793 2.50004C15.8501 2.44265 15.9204 2.4 15.9976 2.37576C16.0749 2.35151 16.1569 2.3464 16.2366 2.36087C16.3163 2.37533 16.3913 2.40893 16.4551 2.45878C16.5189 2.50862 16.5697 2.57323 16.603 2.64704C16.952 3.41885 17.0761 4.2735 16.961 5.1127C16.846 5.95191 16.4963 6.74159 15.9524 7.39093C15.4085 8.04027 14.6923 8.5229 13.8863 8.78332C13.0802 9.04374 12.217 9.07137 11.396 8.86304L5.03 15.311C4.59332 15.7585 3.99679 16.0141 3.37164 16.0217C2.74649 16.0293 2.14392 15.7882 1.6965 15.3515C1.24908 14.9149 0.993457 14.3183 0.985861 13.6932C0.978266 13.068 1.21932 12.4655 1.656 12.018L8.082 5.36004C8.02727 5.07665 7.99981 4.78866 8 4.50004V4.50004ZM12.5 1.00004C11.9648 0.999885 11.4367 1.12248 10.9563 1.35838C10.4759 1.59429 10.056 1.93723 9.72884 2.36083C9.40172 2.78444 9.17611 3.27742 9.06934 3.80187C8.96258 4.32632 8.97752 4.86826 9.113 5.38604C9.13456 5.4689 9.13448 5.55591 9.11277 5.63873C9.09106 5.72155 9.04844 5.79741 8.989 5.85904L2.376 12.713C2.12458 12.9707 1.9858 13.3177 1.99021 13.6777C1.99462 14.0376 2.14184 14.3811 2.3995 14.6325C2.65716 14.884 3.00414 15.0227 3.36412 15.0183C3.7241 15.0139 4.06758 14.8667 4.319 14.609L10.893 7.94904C10.9583 7.88277 11.0409 7.83605 11.1313 7.81414C11.2218 7.79223 11.3166 7.79601 11.405 7.82504C11.9891 8.01759 12.6136 8.05285 13.2156 7.92727C13.8176 7.80168 14.3759 7.51969 14.8343 7.10968C15.2927 6.69967 15.6349 6.17613 15.8266 5.59177C16.0182 5.00741 16.0525 4.38287 15.926 3.78104L13.854 5.85404C13.7602 5.94777 13.6331 6.00043 13.5005 6.00043C13.3679 6.00043 13.2408 5.94777 13.147 5.85404L11.147 3.85404C11.1004 3.80759 11.0635 3.75242 11.0383 3.69167C11.0131 3.63093 11.0001 3.5658 11.0001 3.50004C11.0001 3.43427 11.0131 3.36915 11.0383 3.3084C11.0635 3.24766 11.1004 3.19248 11.147 3.14604L13.219 1.07404C12.9825 1.02474 12.7416 0.999939 12.5 1.00004V1.00004Z" fill="black"/>
</svg>
