<svg width="77" height="55" viewBox="0 0 77 55" fill="none" xmlns="http://www.w3.org/2000/svg">
<path d="M8.59375 0.3125V37.1869L2.39228 43.4781C1.15043 44.7154 0.44781 46.3932 0.4375 48.1462C0.446076 49.8784 1.138 51.5372 2.36288 52.7621C3.58776 53.987 5.24659 54.6789 6.97881 54.6875H70.0212C71.7534 54.6789 73.4122 53.987 74.6371 52.7621C75.862 51.5372 76.5539 49.8784 76.5625 48.1462C76.5518 46.3917 75.8494 44.7122 74.6077 43.4727L68.4062 37.1842V0.3125H8.59375ZM14.0312 5.75H62.9688V35.6562H14.0312V5.75ZM35.7812 11.1875V19.3438H27.625V24.7812H35.7812V32.9375H41.2188V24.7812H49.375V19.3438H41.2188V11.1875H35.7812ZM12.5006 41.0938H64.4967L70.7852 47.2952C71.0011 47.5263 71.1224 47.83 71.125 48.1462C71.1328 48.2932 71.1097 48.4402 71.057 48.5777C71.0043 48.7152 70.9232 48.84 70.8191 48.9441C70.715 49.0482 70.5902 49.1293 70.4527 49.182C70.3152 49.2347 70.1682 49.2578 70.0212 49.25H6.97881C6.8318 49.2578 6.68477 49.2347 6.5473 49.182C6.40983 49.1293 6.28499 49.0482 6.18089 48.9441C6.07678 48.84 5.99575 48.7152 5.94305 48.5777C5.89035 48.4402 5.86716 48.2932 5.875 48.1462C5.875 47.8471 6.00278 47.51 6.21484 47.2952L12.5033 41.0938H12.5006Z" fill="black"/>
</svg>
