<svg width="13" height="12" viewBox="0 0 13 12" fill="none" xmlns="http://www.w3.org/2000/svg">
<path d="M1.39286 0V8.1378L0.333821 9.5262C0.121748 9.79926 0.00176066 10.1695 0 10.5564C0.00146454 10.9387 0.119626 11.3048 0.328801 11.5751C0.537975 11.8454 0.821257 11.9981 1.11707 12H11.8829C12.1787 11.9981 12.462 11.8454 12.6712 11.5751C12.8804 11.3048 12.9985 10.9387 13 10.5564C12.9982 10.1692 12.8782 9.79855 12.6662 9.52501L11.6071 8.1372V0H1.39286ZM2.32142 1.2H10.6786V7.79999H2.32142V1.2ZM6.03571 2.4V4.20001H4.64286V5.39999H6.03571V7.2H6.96429V5.39999H8.35714V4.20001H6.96429V2.4H6.03571ZM2.06004 9.00001H10.9395L12.0134 10.3686C12.0503 10.4196 12.071 10.4866 12.0714 10.5564C12.0728 10.5888 12.0688 10.6213 12.0598 10.6516C12.0508 10.682 12.037 10.7095 12.0192 10.7325C12.0014 10.7555 11.9801 10.7734 11.9566 10.785C11.9331 10.7966 11.908 10.8017 11.8829 10.8H1.11707C1.09197 10.8017 1.06686 10.7966 1.04338 10.785C1.01991 10.7734 0.998586 10.7555 0.980809 10.7325C0.96303 10.7095 0.949192 10.682 0.940192 10.6516C0.931193 10.6213 0.927233 10.5888 0.928571 10.5564C0.928571 10.4904 0.950393 10.416 0.986607 10.3686L2.0605 9.00001H2.06004Z" fill="black"/>
</svg>
