<svg width="18" height="18" viewBox="0 0 18 18" fill="none" xmlns="http://www.w3.org/2000/svg">
<path d="M4.32075 14.706C4.32075 14.706 3.82075 11.331 6.82075 11.331C7.61875 11.863 8.30225 12.2308 9.07075 12.229H9.0395C9.808 12.2308 10.2165 11.688 11.0145 11.156C14.907 11.156 13.8895 14.706 13.8895 14.706" fill="#92D3F5"/>
<path d="M8.88425 13.8744L8.0745 12.8914L7.26475 11.9084H10.5037L9.694 12.8914L8.88425 13.8744Z" fill="white"/>
<path d="M6.6325 11.23C6.6325 11.23 5.1575 12.2365 6.0925 13.0967H7.2355L7.02725 14.0322L9 14.52L9.0725 13.8937L6.9825 11.3027" fill="#61B2E4"/>
<path d="M16.7717 10.8555L15.0343 14.943H8.78675L10.5243 10.8555H16.7717Z" fill="#D0CFCE"/>
<path d="M16.8258 10.8555L15.0883 14.943H12.8407L14.5782 10.8555H16.7708H16.8258Z" fill="#9B9B9A"/>
<path d="M11.919 4.51807C12.1447 5.27107 12.373 6.26057 11.7972 6.63157C11.7972 6.63157 11.4728 5.33357 11.0548 5.10082" fill="#2D2D2D"/>
<path d="M7.0155 4.99303C8.393 5.66428 10.209 5.54178 11.2297 4.97553C11.4296 4.86607 11.6104 4.72499 11.7653 4.55778C12.4943 3.76353 11.8217 2.97153 11.8217 2.97153L11.1643 3.47903C8.95525 1.27028 6.496 2.58228 6.66175 3.83728C6.66175 3.83728 4.9255 4.74303 6.128 6.70303L7.0155 4.99303V4.99303Z" fill="#2D2D2D"/>
<path d="M4.22925 14.73C4.16964 14.7299 4.11201 14.7086 4.0668 14.6697C4.02158 14.6309 3.99177 14.5771 3.98275 14.5182C3.9725 14.4507 3.7395 12.86 4.62775 11.8245C5.10875 11.2642 5.81575 10.9802 6.72975 10.9802C6.77913 10.9802 6.82741 10.9948 6.8685 11.0222C7.65925 11.5492 8.28725 11.8767 8.96975 11.8782H8.97975C9.04605 11.8782 9.10967 11.9044 9.1566 11.9513C9.20353 11.9981 9.22993 12.0617 9.23 12.128C9.23007 12.1943 9.20379 12.2579 9.15695 12.3048C9.11012 12.3518 9.04655 12.3782 8.98025 12.3782H8.979C8.97584 12.378 8.97266 12.378 8.9695 12.3782H8.9485L8.93725 12.378C8.1625 12.3675 7.48325 12.0272 6.6555 11.481C5.9315 11.495 5.378 11.7195 5.009 12.1482C4.27 13.0072 4.4745 14.4282 4.47675 14.4427C4.48211 14.4783 4.47973 14.5147 4.46975 14.5493C4.45977 14.5839 4.44244 14.6159 4.41894 14.6432C4.39543 14.6704 4.36632 14.6923 4.33358 14.7073C4.30084 14.7223 4.26525 14.73 4.22925 14.73V14.73Z" fill="black"/>
<path d="M8.499 13.821C8.46149 13.8211 8.42445 13.8127 8.39064 13.7965C8.35682 13.7802 8.32712 13.7566 8.30375 13.7272L6.4875 11.4595C6.46696 11.4339 6.45168 11.4045 6.44251 11.373C6.43334 11.3415 6.43048 11.3085 6.43408 11.2758C6.43767 11.2432 6.44767 11.2116 6.46348 11.1829C6.4793 11.1541 6.50063 11.1287 6.52625 11.1082C6.55183 11.0876 6.58124 11.0722 6.61279 11.063C6.64433 11.0538 6.67739 11.0509 6.71006 11.0545C6.74273 11.0581 6.77437 11.0681 6.80314 11.084C6.83192 11.0999 6.85728 11.1213 6.87775 11.147L8.69375 13.4147C8.72327 13.4514 8.7418 13.4958 8.74721 13.5426C8.75262 13.5893 8.74469 13.6367 8.72432 13.6792C8.70396 13.7217 8.672 13.7575 8.63213 13.7826C8.59226 13.8077 8.54611 13.821 8.499 13.821Z" fill="black"/>
<path d="M8.25175 14.3388C8.23274 14.3389 8.21378 14.3368 8.19525 14.3325L6.971 14.0508C6.93776 14.0432 6.90642 14.0289 6.87893 14.0087C6.85143 13.9886 6.82835 13.963 6.81111 13.9336C6.79387 13.9041 6.78284 13.8715 6.77869 13.8377C6.77455 13.8038 6.77737 13.7695 6.787 13.7368L6.9015 13.3468H6.0925C6.03 13.3468 5.9695 13.323 5.92325 13.2808C5.57225 12.9578 5.51825 12.6193 5.535 12.392C5.58825 11.6605 6.39975 11.0865 6.492 11.0235C6.54676 10.9878 6.61333 10.975 6.67746 10.9877C6.74158 11.0005 6.79814 11.0379 6.83503 11.0919C6.87191 11.1459 6.88618 11.2121 6.87477 11.2765C6.86336 11.3409 6.82719 11.3983 6.774 11.4363C6.57825 11.5708 6.06325 12.0113 6.0335 12.4293C6.023 12.5773 6.076 12.7143 6.196 12.8468H7.236C7.2748 12.8469 7.31306 12.856 7.34774 12.8734C7.38243 12.8908 7.41259 12.916 7.43586 12.9471C7.45913 12.9781 7.47487 13.0141 7.48184 13.0523C7.4888 13.0905 7.48681 13.1298 7.476 13.167L7.342 13.623L8.30775 13.8453C8.36745 13.8592 8.41997 13.8945 8.45533 13.9446C8.49069 13.9946 8.50642 14.0559 8.49954 14.1168C8.49266 14.1778 8.46364 14.234 8.41801 14.2749C8.37237 14.3158 8.31329 14.3386 8.252 14.3388H8.25175Z" fill="black"/>
<path d="M8.78675 14.9435H15.0343L16.7717 10.856H10.5243L8.78675 14.9435Z" stroke="black" stroke-width="0.5" stroke-miterlimit="10" stroke-linecap="round" stroke-linejoin="round"/>
<path d="M6.04425 14.9434H8.78675" stroke="black" stroke-width="0.5" stroke-miterlimit="10" stroke-linecap="round" stroke-linejoin="round"/>
<path d="M10.4933 6.76075C10.4932 6.89343 10.4404 7.02064 10.3466 7.11441C10.2527 7.20818 10.1254 7.26082 9.99275 7.26075C9.86008 7.26069 9.73286 7.20792 9.63909 7.11406C9.54533 7.0202 9.49268 6.89293 9.49275 6.76025C9.49282 6.62758 9.54558 6.50036 9.63945 6.4066C9.73331 6.31283 9.86058 6.26019 9.99325 6.26025C10.1259 6.26032 10.2531 6.31309 10.3469 6.40695C10.4407 6.50081 10.4933 6.62808 10.4933 6.76075" fill="black"/>
<path d="M8.49325 6.76075C8.49318 6.89343 8.44042 7.02064 8.34655 7.11441C8.25269 7.20818 8.12542 7.26082 7.99275 7.26075C7.86008 7.26069 7.73286 7.20792 7.63909 7.11406C7.54532 7.0202 7.49268 6.89293 7.49275 6.76025C7.49278 6.69456 7.50575 6.62952 7.53092 6.56884C7.5561 6.50815 7.59297 6.45303 7.63945 6.4066C7.68592 6.36017 7.74109 6.32335 7.80179 6.29824C7.8625 6.27313 7.92756 6.26022 7.99325 6.26025C8.05894 6.26029 8.12399 6.27326 8.18467 6.29843C8.24535 6.3236 8.30048 6.36047 8.34691 6.40695C8.39334 6.45343 8.43016 6.50859 8.45527 6.5693C8.48038 6.63 8.49328 6.69506 8.49325 6.76075" fill="black"/>
<path d="M8.99325 9.26126C8.70525 9.26126 8.41725 9.18976 8.1315 9.04676C8.10187 9.03224 8.07541 9.012 8.05364 8.98721C8.03187 8.96242 8.01523 8.93356 8.00466 8.9023C7.9941 8.87104 7.98983 8.838 7.9921 8.80509C7.99437 8.77217 8.00313 8.74003 8.01787 8.71051C8.03262 8.681 8.05307 8.65469 8.07803 8.63312C8.103 8.61154 8.13198 8.59512 8.16332 8.58481C8.19466 8.57449 8.22773 8.57047 8.26063 8.573C8.29353 8.57552 8.3256 8.58453 8.355 8.59951C8.7845 8.81451 9.202 8.81451 9.6315 8.59951C9.69084 8.56987 9.75953 8.56502 9.82245 8.58603C9.8536 8.59643 9.8824 8.61286 9.9072 8.63439C9.93201 8.65592 9.95232 8.68213 9.967 8.71151C9.98167 8.7409 9.99042 8.77288 9.99273 8.80564C9.99505 8.83841 9.99088 8.8713 9.98048 8.90246C9.97008 8.93361 9.95365 8.96241 9.93212 8.98722C9.91059 9.01202 9.88438 9.03234 9.855 9.04701C9.569 9.18976 9.28125 9.26126 8.99325 9.26126V9.26126Z" fill="black"/>
<path d="M8.9625 10.8945C7.26175 10.8945 5.878 9.19296 5.878 7.10121C5.878 6.93446 5.88675 6.76746 5.904 6.60521C5.90664 6.57191 5.91593 6.53949 5.93132 6.50984C5.9467 6.4802 5.96787 6.45394 5.99357 6.43261C6.01927 6.41128 6.04899 6.39532 6.08096 6.38567C6.11293 6.37602 6.14651 6.37287 6.17972 6.37641C6.21293 6.37995 6.2451 6.39011 6.27432 6.40629C6.30353 6.42247 6.32921 6.44434 6.34984 6.4706C6.37047 6.49687 6.38562 6.52701 6.39441 6.55923C6.40319 6.59145 6.40544 6.62511 6.401 6.65821C6.38575 6.80321 6.378 6.95221 6.378 7.10121C6.378 8.91721 7.53725 10.3945 8.96275 10.3945C10.3877 10.3945 11.5472 8.91721 11.5472 7.10121C11.5472 6.95421 11.5397 6.80621 11.5242 6.66021C11.5198 6.59553 11.5407 6.53166 11.5824 6.48205C11.6242 6.43244 11.6835 6.40097 11.748 6.39427C11.8125 6.38756 11.8771 6.40614 11.9281 6.44609C11.9792 6.48604 12.0128 6.54425 12.0217 6.60846C12.0385 6.77146 12.047 6.93721 12.047 7.10096C12.047 9.19271 10.6632 10.8945 8.96275 10.8945H8.9625Z" fill="black"/>
<path d="M10.3675 8.16706H9.86575C9.68183 8.16691 9.50187 8.11369 9.34746 8.01378C9.19305 7.91387 9.07075 7.77152 8.99525 7.60381C8.91983 7.77148 8.79763 7.91381 8.6433 8.01372C8.48898 8.11364 8.30909 8.16688 8.12525 8.16706H7.62325C7.37031 8.1668 7.12781 8.0662 6.94896 7.88735C6.77011 7.7085 6.66951 7.466 6.66925 7.21306V6.90356H6.496C6.4297 6.90356 6.36611 6.87722 6.31922 6.83034C6.27234 6.78346 6.246 6.71987 6.246 6.65356C6.246 6.58726 6.27234 6.52367 6.31922 6.47679C6.36611 6.4299 6.4297 6.40356 6.496 6.40356H6.91925C6.98555 6.40356 7.04914 6.4299 7.09603 6.47679C7.14291 6.52367 7.16925 6.58726 7.16925 6.65356V7.21306C7.16925 7.46331 7.37275 7.66706 7.62325 7.66706H8.12525C8.24557 7.66687 8.36091 7.61896 8.44597 7.53386C8.53103 7.44875 8.57887 7.33339 8.579 7.21306V6.93706C8.579 6.87076 8.60534 6.80717 8.65222 6.76029C8.69911 6.7134 8.7627 6.68706 8.829 6.68706H9.1615C9.2278 6.68706 9.29139 6.7134 9.33828 6.76029C9.38516 6.80717 9.4115 6.87076 9.4115 6.93706V7.21306C9.4115 7.46331 9.61525 7.66706 9.86575 7.66706H10.3677C10.4881 7.66687 10.6034 7.61896 10.6885 7.53386C10.7735 7.44875 10.8214 7.33339 10.8215 7.21306V6.65356C10.8215 6.58726 10.8478 6.52367 10.8947 6.47679C10.9416 6.4299 11.0052 6.40356 11.0715 6.40356H11.3607C11.4271 6.40356 11.4906 6.4299 11.5375 6.47679C11.5844 6.52367 11.6107 6.58726 11.6107 6.65356C11.6107 6.71987 11.5844 6.78346 11.5375 6.83034C11.4906 6.87722 11.4271 6.90356 11.3607 6.90356H11.3215V7.21306C11.3212 7.46596 11.2207 7.70842 11.0419 7.88726C10.8631 8.06611 10.6206 8.16673 10.3677 8.16706H10.3675Z" fill="black"/>
<path d="M11.797 6.88158C11.7413 6.88163 11.6871 6.86302 11.6432 6.82872C11.5992 6.79443 11.568 6.74642 11.5545 6.69233C11.411 6.11833 11.1322 5.42983 10.933 5.31908C10.9043 5.30308 10.8791 5.28158 10.8587 5.25582C10.8383 5.23006 10.8232 5.20054 10.8143 5.16894C10.8053 5.13735 10.8027 5.1043 10.8065 5.07168C10.8103 5.03906 10.8205 5.00751 10.8365 4.97883C10.8525 4.95016 10.874 4.92491 10.8998 4.90454C10.9255 4.88417 10.955 4.86908 10.9866 4.86012C11.0182 4.85115 11.0513 4.8485 11.0839 4.85232C11.1165 4.85613 11.1481 4.86633 11.1768 4.88233C11.493 5.05858 11.7372 5.61783 11.886 6.05308C11.968 5.65183 11.8197 5.05783 11.6795 4.58983C11.6605 4.52631 11.6675 4.45784 11.6989 4.39947C11.7304 4.3411 11.7837 4.29761 11.8472 4.27858C11.9108 4.25955 11.9792 4.26654 12.0376 4.298C12.096 4.32946 12.1395 4.38281 12.1585 4.44633C12.3277 5.01058 12.7242 6.33208 11.9325 6.84183C11.8922 6.86784 11.8452 6.88164 11.7972 6.88158H11.797Z" fill="black"/>
<path d="M6.128 6.95337C6.04125 6.95337 5.9605 6.90837 5.91475 6.83387C5.489 6.13987 5.357 5.48462 5.52225 4.88662C5.6985 4.24987 6.166 3.86412 6.404 3.70287C6.41 3.15437 6.7965 2.62037 7.429 2.30837C8.33925 1.85912 9.7865 1.85837 11.182 3.14962L11.669 2.77362C11.72 2.73442 11.7841 2.71632 11.848 2.72307C11.9119 2.72982 11.9708 2.7609 12.0125 2.80987C12.2942 3.14187 12.644 3.96987 11.9497 4.72687C11.7765 4.91377 11.5743 5.07162 11.351 5.19437C10.381 5.73237 8.60975 5.93962 7.12825 5.31837L6.34975 6.81837C6.32938 6.85764 6.29896 6.89081 6.26158 6.91449C6.2242 6.93816 6.18121 6.95149 6.137 6.95312H6.128V6.95337ZM8.6315 2.53712C8.259 2.53712 7.9245 2.62162 7.6505 2.75662C7.14925 3.00412 6.8585 3.41537 6.90975 3.80462C6.91649 3.85548 6.90741 3.90719 6.88375 3.95272C6.86009 3.99825 6.823 4.03539 6.7775 4.05912C6.7725 4.06162 6.1775 4.38412 6.003 5.02512C5.90875 5.37062 5.9505 5.75187 6.12675 6.16262L6.7935 4.87812C6.82351 4.82018 6.87498 4.77628 6.93691 4.75577C6.99885 4.73527 7.06635 4.73979 7.125 4.76837C8.445 5.41187 10.1872 5.26787 11.1085 4.75712C11.2849 4.66052 11.4445 4.53609 11.5812 4.38862C11.9602 3.97562 11.8692 3.57087 11.7577 3.33687L11.317 3.67687C11.2688 3.71398 11.2088 3.73231 11.1482 3.72844C11.0875 3.72458 11.0303 3.69878 10.9872 3.65587C10.167 2.83537 9.33225 2.53712 8.6315 2.53712V2.53712Z" fill="black"/>
</svg>
