<svg width="24" height="24" viewBox="0 0 24 24" fill="none" xmlns="http://www.w3.org/2000/svg">
<path d="M11 12.0001V13.0001H10C9.73478 13.0001 9.48043 13.1055 9.29289 13.293C9.10536 13.4805 9 13.7349 9 14.0001C9 14.2653 9.10536 14.5197 9.29289 14.7072C9.48043 14.8948 9.73478 15.0001 10 15.0001H11V16.0001C11 16.2653 11.1054 16.5197 11.2929 16.7072C11.4804 16.8948 11.7348 17.0001 12 17.0001C12.2652 17.0001 12.5196 16.8948 12.7071 16.7072C12.8946 16.5197 13 16.2653 13 16.0001V15.0001H14C14.2652 15.0001 14.5196 14.8948 14.7071 14.7072C14.8946 14.5197 15 14.2653 15 14.0001C15 13.7349 14.8946 13.4805 14.7071 13.293C14.5196 13.1055 14.2652 13.0001 14 13.0001H13V12.0001C13 11.7349 12.8946 11.4805 12.7071 11.293C12.5196 11.1055 12.2652 11.0001 12 11.0001C11.7348 11.0001 11.4804 11.1055 11.2929 11.293C11.1054 11.4805 11 11.7349 11 12.0001ZM21.664 10.2521L12.664 2.25212C12.4811 2.0894 12.2448 1.99951 12 1.99951C11.7552 1.99951 11.5189 2.0894 11.336 2.25212L2.336 10.2521C2.13762 10.4282 2.01732 10.6759 2.00156 10.9407C1.98581 11.2055 2.0759 11.4657 2.252 11.6641C2.4281 11.8625 2.6758 11.9828 2.9406 11.9986C3.2054 12.0143 3.46562 11.9242 3.664 11.7481L4 11.4491V21.0001C4 21.2653 4.10536 21.5197 4.29289 21.7072C4.48043 21.8948 4.73478 22.0001 5 22.0001H19C19.2652 22.0001 19.5196 21.8948 19.7071 21.7072C19.8946 21.5197 20 21.2653 20 21.0001V11.4491L20.336 11.7481C20.5344 11.9242 20.7946 12.0143 21.0594 11.9986C21.1905 11.9908 21.3188 11.9572 21.437 11.8998C21.5551 11.8424 21.6608 11.7623 21.748 11.6641C21.8352 11.5659 21.9022 11.4514 21.9452 11.3273C21.9881 11.2032 22.0062 11.0718 21.9984 10.9407C21.9906 10.8096 21.9571 10.6813 21.8997 10.5632C21.8423 10.445 21.7622 10.3393 21.664 10.2521V10.2521ZM18 20.0001H6V9.67112L12 4.33812L18 9.67112V20.0001Z" fill="black"/>
</svg>
