<svg width="14" height="14" viewBox="0 0 14 14" fill="none" xmlns="http://www.w3.org/2000/svg">
<path d="M12.9291 4.44594L12.3676 3.5525C12.2978 3.44124 12.1826 3.35997 12.0473 3.32657C11.9122 3.29316 11.7681 3.31036 11.6466 3.37437L8.29252 5.15562C8.2717 5.16664 8.24808 5.17242 8.22403 5.17237C8.19999 5.17233 8.17639 5.16645 8.15562 5.15535C8.13487 5.14424 8.11766 5.1283 8.10578 5.10914C8.0939 5.08998 8.08776 5.06829 8.08798 5.04625L8.09071 1.5C8.09071 1.36739 8.03324 1.24021 7.93095 1.14645C7.82867 1.05268 7.68993 1 7.54527 1H6.45439C6.30973 1 6.171 1.05268 6.06871 1.14645C5.96642 1.24021 5.90895 1.36739 5.90895 1.5L5.91134 5.04906C5.91156 5.0711 5.90541 5.0928 5.89353 5.11196C5.88165 5.13112 5.86445 5.14706 5.84369 5.15816C5.82292 5.16926 5.79933 5.17514 5.77529 5.17519C5.75124 5.17524 5.72761 5.16946 5.7068 5.15844L2.35269 3.37719C2.23131 3.31317 2.08716 3.29597 1.95194 3.32938C1.81674 3.36278 1.70153 3.44405 1.63168 3.55531L1.07057 4.44906C1.03592 4.504 1.01346 4.56467 1.00446 4.62758C0.995462 4.6905 1.00011 4.75442 1.01813 4.81569C1.03615 4.87695 1.0672 4.93435 1.10948 4.98459C1.15177 5.03483 1.20446 5.07692 1.26454 5.10844L4.62205 6.89219C4.64256 6.90322 4.65957 6.91897 4.67138 6.93788C4.6832 6.95679 4.68941 6.97821 4.68941 7C4.68941 7.02179 4.6832 7.04321 4.67138 7.06212C4.65957 7.08103 4.64256 7.09678 4.62205 7.10781L1.26454 8.89156C1.14403 8.95593 1.05607 9.06127 1.01976 9.18471C0.983442 9.30816 1.0017 9.43975 1.07057 9.55094L1.63203 10.4444C1.70188 10.5556 1.81708 10.6369 1.95229 10.6703C2.0875 10.7037 2.23164 10.6865 2.35303 10.6225L5.70714 8.84125C5.72796 8.83023 5.75158 8.82445 5.77562 8.8245C5.79967 8.82455 5.82326 8.83042 5.84403 8.84153C5.8648 8.85263 5.88199 8.86857 5.89387 8.88773C5.90575 8.90689 5.9119 8.92859 5.91168 8.95063L5.90895 12.5C5.90895 12.6326 5.96642 12.7598 6.06871 12.8536C6.171 12.9473 6.30973 13 6.45439 13H7.54527C7.68993 13 7.82867 12.9473 7.93095 12.8536C8.03324 12.7598 8.09071 12.6326 8.09071 12.5L8.08832 8.94781C8.0881 8.92578 8.09425 8.90408 8.10613 8.88492C8.11801 8.86576 8.1352 8.84982 8.15596 8.83872C8.17673 8.82761 8.20033 8.82174 8.22437 8.82169C8.24841 8.82164 8.27204 8.82742 8.29286 8.83844L11.647 10.6197C11.7684 10.6837 11.9125 10.7009 12.0478 10.6675C12.1829 10.6341 12.2981 10.5528 12.3679 10.4416L12.9294 9.54813C12.9641 9.49319 12.9866 9.43252 12.9955 9.36961C13.0046 9.30669 12.9999 9.24277 12.9819 9.1815C12.9639 9.12023 12.9328 9.06284 12.8906 9.0126C12.8482 8.96236 12.7956 8.92027 12.7354 8.88875L9.37794 7.105C9.35743 7.09397 9.34044 7.07822 9.32862 7.05931C9.31681 7.0404 9.31059 7.01898 9.31059 6.99719C9.31059 6.97539 9.31681 6.95398 9.32862 6.93507C9.34044 6.91616 9.35743 6.9004 9.37794 6.88938L12.7354 5.10563C12.8562 5.04138 12.9443 4.93596 12.9806 4.81237C13.0169 4.68878 12.9983 4.55706 12.9291 4.44594Z" stroke="black" stroke-linecap="round" stroke-linejoin="round"/>
</svg>
