<svg width="12" height="14" viewBox="0 0 12 14" fill="none" xmlns="http://www.w3.org/2000/svg">
<path d="M11.4353 4.44594L10.9206 3.5525C10.8566 3.44124 10.751 3.35997 10.627 3.32657C10.5031 3.29316 10.371 3.31036 10.2597 3.37437L7.185 5.15562C7.16592 5.16664 7.14426 5.17242 7.12222 5.17237C7.10018 5.17233 7.07855 5.16645 7.05951 5.15535C7.04048 5.14424 7.02471 5.1283 7.01382 5.10914C7.00293 5.08998 6.9973 5.06829 6.9975 5.04625L7 1.5C7 1.36739 6.94732 1.24021 6.85355 1.14645C6.75979 1.05268 6.63261 1 6.5 1H5.5C5.36739 1 5.24022 1.05268 5.14645 1.14645C5.05268 1.24021 5 1.36739 5 1.5L5.00219 5.04906C5.00239 5.0711 4.99675 5.0928 4.98586 5.11196C4.97497 5.13112 4.95921 5.14706 4.94018 5.15816C4.92114 5.16926 4.89951 5.17514 4.87747 5.17519C4.85543 5.17524 4.83377 5.16946 4.81469 5.15844L1.74 3.37719C1.62873 3.31317 1.49659 3.29597 1.37264 3.32938C1.2487 3.36278 1.14309 3.44405 1.07906 3.55531L0.564688 4.44906C0.532931 4.504 0.512338 4.56467 0.504089 4.62758C0.49584 4.6905 0.500099 4.75442 0.51662 4.81569C0.533141 4.87695 0.5616 4.93435 0.600363 4.98459C0.639126 5.03483 0.687429 5.07692 0.7425 5.10844L3.82031 6.89219C3.83911 6.90322 3.8547 6.91897 3.86553 6.93788C3.87636 6.95679 3.88206 6.97821 3.88206 7C3.88206 7.02179 3.87636 7.04321 3.86553 7.06212C3.8547 7.08103 3.83911 7.09678 3.82031 7.10781L0.7425 8.89156C0.63203 8.95593 0.5514 9.06127 0.518111 9.18471C0.484821 9.30816 0.501558 9.43975 0.564688 9.55094L1.07938 10.4444C1.14341 10.5556 1.24901 10.6369 1.37296 10.6703C1.4969 10.7037 1.62904 10.6865 1.74031 10.6225L4.815 8.84125C4.83409 8.83023 4.85574 8.82445 4.87778 8.8245C4.89982 8.82455 4.92145 8.83042 4.94049 8.84153C4.95953 8.85263 4.97529 8.86857 4.98618 8.88773C4.99707 8.90689 5.0027 8.92859 5.0025 8.95063L5 12.5C5 12.6326 5.05268 12.7598 5.14645 12.8536C5.24022 12.9473 5.36739 13 5.5 13H6.5C6.63261 13 6.75979 12.9473 6.85355 12.8536C6.94732 12.7598 7 12.6326 7 12.5L6.99781 8.94781C6.99761 8.92578 7.00325 8.90408 7.01414 8.88492C7.02503 8.86576 7.04079 8.84982 7.05982 8.83872C7.07886 8.82761 7.10049 8.82174 7.12253 8.82169C7.14457 8.82164 7.16623 8.82742 7.18531 8.83844L10.26 10.6197C10.3713 10.6837 10.5034 10.7009 10.6274 10.6675C10.7513 10.6341 10.8569 10.5528 10.9209 10.4416L11.4356 9.54813C11.4674 9.49319 11.488 9.43252 11.4962 9.36961C11.5045 9.30669 11.5002 9.24277 11.4837 9.1815C11.4672 9.12023 11.4387 9.06284 11.4 9.0126C11.3612 8.96236 11.3129 8.92027 11.2578 8.88875L8.18 7.105C8.1612 7.09397 8.14562 7.07822 8.13479 7.05931C8.12396 7.0404 8.11826 7.01898 8.11826 6.99719C8.11826 6.97539 8.12396 6.95398 8.13479 6.93507C8.14562 6.91616 8.1612 6.9004 8.18 6.88938L11.2578 5.10563C11.3685 5.04138 11.4493 4.93596 11.4825 4.81237C11.5158 4.68878 11.4988 4.55706 11.4353 4.44594V4.44594Z" stroke="black" stroke-linecap="round" stroke-linejoin="round"/>
</svg>
