<svg width="20" height="20" viewBox="0 0 20 20" fill="none" xmlns="http://www.w3.org/2000/svg">
<path d="M7 12.917V13.5C7 14.6935 7.47411 15.8381 8.31802 16.682C9.16193 17.5259 10.3065 18 11.5 18C12.6935 18 13.8381 17.5259 14.682 16.682C15.5259 15.8381 16 14.6935 16 13.5V11.83C15.3325 11.5941 14.7699 11.1298 14.4116 10.5192C14.0534 9.90858 13.9225 9.19098 14.0422 8.49321C14.1619 7.79545 14.5244 7.16246 15.0656 6.70613C15.6069 6.2498 16.292 5.99951 17 5.99951C17.708 5.99951 18.3931 6.2498 18.9344 6.70613C19.4756 7.16246 19.8381 7.79545 19.9578 8.49321C20.0775 9.19098 19.9466 9.90858 19.5884 10.5192C19.2301 11.1298 18.6675 11.5941 18 11.83V13.5C18 15.2239 17.3152 16.8772 16.0962 18.0962C14.8772 19.3152 13.2239 20 11.5 20C9.77609 20 8.12279 19.3152 6.90381 18.0962C5.68482 16.8772 5 15.2239 5 13.5V12.917C3.60193 12.6803 2.33281 11.9562 1.4176 10.8732C0.502386 9.79009 0.000181879 8.41797 0 7V2C0 1.46957 0.210714 0.960859 0.585786 0.585786C0.960859 0.210714 1.46957 0 2 0H3C3.26522 0 3.51957 0.105357 3.70711 0.292893C3.89464 0.48043 4 0.734784 4 1C4 1.26522 3.89464 1.51957 3.70711 1.70711C3.51957 1.89464 3.26522 2 3 2H2V7C2 8.06087 2.42143 9.07828 3.17157 9.82843C3.92172 10.5786 4.93913 11 6 11C7.06087 11 8.07828 10.5786 8.82843 9.82843C9.57857 9.07828 10 8.06087 10 7V2H9C8.73478 2 8.48043 1.89464 8.29289 1.70711C8.10536 1.51957 8 1.26522 8 1C8 0.734784 8.10536 0.48043 8.29289 0.292893C8.48043 0.105357 8.73478 0 9 0H10C10.5304 0 11.0391 0.210714 11.4142 0.585786C11.7893 0.960859 12 1.46957 12 2V7C11.9998 8.41797 11.4976 9.79009 10.5824 10.8732C9.66719 11.9562 8.39807 12.6803 7 12.917ZM17 10C17.2652 10 17.5196 9.89464 17.7071 9.70711C17.8946 9.51957 18 9.26522 18 9C18 8.73478 17.8946 8.48043 17.7071 8.29289C17.5196 8.10536 17.2652 8 17 8C16.7348 8 16.4804 8.10536 16.2929 8.29289C16.1054 8.48043 16 8.73478 16 9C16 9.26522 16.1054 9.51957 16.2929 9.70711C16.4804 9.89464 16.7348 10 17 10Z" fill="black"/>
</svg>
